<svg xmlns="http://www.w3.org/2000/svg" xmlns:xlink="http://www.w3.org/1999/xlink" width="500" zoomAndPan="magnify" viewBox="0 0 375 374.999991" height="500" preserveAspectRatio="xMidYMid meet" version="1.0"><defs><g/></defs><path stroke-linecap="butt" transform="matrix(0.579181, 0, 0, 0.579181, 167.183943, 119.15663)" fill="none" stroke-linejoin="miter" d="M 194.023358 119.686122 C 194.023358 122.377152 193.99638 125.668437 193.942425 129.546489 C 193.888469 133.42454 193.861491 137.484691 193.861491 141.720197 C 193.861491 145.955704 193.834514 149.928177 193.780558 153.644362 C 193.719858 157.353802 193.692881 160.476476 193.692881 163.00564 C 193.692881 165.534804 193.692881 167.038813 193.692881 167.50418 C 193.692881 167.834657 193.571481 168.003268 193.321937 168.003268 L 127.927876 168.003268 C 127.70531 168.003268 127.597399 167.888612 127.597399 167.67279 C 127.044355 166.323903 126.511544 164.975016 125.985478 163.626128 C 125.493134 162.250263 124.899624 160.887887 124.211691 159.539 C 122.977459 156.733314 121.932072 153.448773 121.075528 149.678633 C 120.252707 145.881515 119.045453 142.860007 117.447021 140.600621 C 116.678155 139.4743 115.60579 139.2315 114.229925 139.858733 C 112.881037 140.49271 112.152638 141.484142 112.044727 142.833029 C 111.822161 146.434559 111.822161 150.548665 112.044727 155.168604 C 112.260549 159.788544 112.442649 163.90265 112.577538 167.50418 C 112.577538 167.834657 112.402182 168.003268 112.044727 168.003268 L 53.08486 168.003268 C 52.727405 168.003268 52.545305 167.834657 52.545305 167.50418 C 52.545305 158.264301 52.680194 148.9907 52.956715 139.696866 C 53.260215 130.396288 53.408593 121.129431 53.408593 111.889553 C 53.408593 103.883906 53.49627 95.682671 53.658137 87.292591 C 53.826748 78.909256 53.577204 71.105943 52.916249 63.902884 L 52.916249 62.21003 C 52.916249 61.879553 53.02416 61.717686 53.246726 61.717686 L 116.954677 61.717686 C 117.170499 61.717686 117.285155 61.825597 117.285155 62.048164 C 118.411476 64.631283 119.429886 67.753958 120.33364 71.409442 C 121.244139 75.071672 122.195105 78.727156 123.179793 82.382641 C 124.198203 86.04487 125.344757 89.127078 126.605967 91.629264 C 126.936444 92.175564 127.46251 92.607208 128.17742 92.903963 C 128.919308 93.180485 129.634219 93.193974 130.322151 92.951174 C 131.671039 92.620696 132.399438 91.615775 132.507349 89.936411 C 132.837826 87.569113 133.02667 84.695983 133.08737 81.310276 C 133.141326 77.931313 133.141326 74.49165 133.08737 70.998032 C 133.02667 67.504413 132.999693 64.577328 132.999693 62.21003 C 132.999693 61.879553 133.168304 61.717686 133.498781 61.717686 L 193.861491 61.717686 C 194.191969 61.717686 194.353835 61.879553 194.353835 62.21003 C 194.353835 62.317941 194.353835 62.432597 194.353835 62.540508 C 194.353835 72.110864 194.29988 81.654242 194.191969 91.177387 C 194.077313 100.693787 194.023358 110.196699 194.023358 119.686122 Z M 194.023358 119.686122 " stroke="#000000" stroke-width="12.675" stroke-opacity="1" stroke-miterlimit="4"/><g fill="#ffffff" fill-opacity="1"><g transform="translate(195.08418, 216.459045)"><g><path d="M 84.46875 -28 C 84.46875 -26.425781 84.453125 -24.515625 84.421875 -22.265625 C 84.390625 -20.015625 84.375 -17.664062 84.375 -15.21875 C 84.375 -12.769531 84.351562 -10.46875 84.3125 -8.3125 C 84.28125 -6.164062 84.265625 -4.359375 84.265625 -2.890625 C 84.265625 -1.421875 84.265625 -0.554688 84.265625 -0.296875 C 84.265625 -0.0976562 84.203125 0 84.078125 0 L 46.203125 0 C 46.066406 0 46 -0.0664062 46 -0.203125 C 45.675781 -0.984375 45.363281 -1.765625 45.0625 -2.546875 C 44.769531 -3.328125 44.429688 -4.109375 44.046875 -4.890625 C 43.328125 -6.523438 42.722656 -8.429688 42.234375 -10.609375 C 41.742188 -12.796875 41.039062 -14.546875 40.125 -15.859375 C 39.664062 -16.503906 39.046875 -16.648438 38.265625 -16.296875 C 37.484375 -15.941406 37.0625 -15.367188 37 -14.578125 C 36.863281 -12.492188 36.859375 -10.113281 36.984375 -7.4375 C 37.117188 -4.757812 37.222656 -2.378906 37.296875 -0.296875 C 37.296875 -0.0976562 37.195312 0 37 0 L 2.84375 0 C 2.644531 0 2.546875 -0.0976562 2.546875 -0.296875 C 2.546875 -5.640625 2.625 -11.003906 2.78125 -16.390625 C 2.945312 -21.773438 3.03125 -27.144531 3.03125 -32.5 C 3.03125 -37.125 3.078125 -41.867188 3.171875 -46.734375 C 3.273438 -51.597656 3.128906 -56.117188 2.734375 -60.296875 L 2.734375 -61.265625 C 2.734375 -61.460938 2.800781 -61.5625 2.9375 -61.5625 L 39.828125 -61.5625 C 39.960938 -61.5625 40.03125 -61.5 40.03125 -61.375 C 40.6875 -59.863281 41.273438 -58.046875 41.796875 -55.921875 C 42.316406 -53.804688 42.867188 -51.6875 43.453125 -49.5625 C 44.046875 -47.445312 44.695312 -45.671875 45.40625 -44.234375 C 45.601562 -43.910156 45.914062 -43.664062 46.34375 -43.5 C 46.769531 -43.34375 47.175781 -43.328125 47.5625 -43.453125 C 48.34375 -43.648438 48.769531 -44.238281 48.84375 -45.21875 C 49.039062 -46.59375 49.15625 -48.253906 49.1875 -50.203125 C 49.21875 -52.160156 49.21875 -54.148438 49.1875 -56.171875 C 49.15625 -58.203125 49.140625 -59.898438 49.140625 -61.265625 C 49.140625 -61.460938 49.234375 -61.5625 49.421875 -61.5625 L 84.375 -61.5625 C 84.5625 -61.5625 84.65625 -61.460938 84.65625 -61.265625 C 84.65625 -61.203125 84.65625 -61.140625 84.65625 -61.078125 C 84.65625 -55.523438 84.625 -49.992188 84.5625 -44.484375 C 84.5 -38.972656 84.46875 -33.476562 84.46875 -28 Z M 84.46875 -28 "/></g></g></g><path stroke-linecap="butt" transform="matrix(0.579181, 0, 0, 0.579181, 116.72703, 119.15663)" fill="none" stroke-linejoin="miter" d="M 194.448053 62.048164 C 194.448053 64.300806 194.421075 67.436969 194.36712 71.449909 C 194.313164 75.442616 194.286186 79.610678 194.286186 83.954095 C 194.286186 88.270535 194.286186 92.148586 194.286186 95.588249 C 194.286186 99.027912 194.340142 101.307531 194.448053 102.440597 C 194.448053 103.459007 193.94222 104.018795 192.92381 104.126706 C 191.352356 104.349272 189.045759 104.484161 185.990529 104.544861 C 182.962277 104.598816 179.731691 104.598816 176.292029 104.544861 C 172.85911 104.484161 169.749925 104.457183 166.971217 104.457183 C 164.219487 104.457183 162.337789 104.517883 161.319379 104.625794 C 160.658424 104.625794 159.98398 104.706727 159.296048 104.875338 C 158.608115 105.037205 157.987627 105.300238 157.441327 105.657693 C 156.308262 106.53447 155.525907 107.654046 155.087519 108.996189 C 154.837975 109.576211 154.635642 111.309531 154.467031 114.19615 C 154.305164 117.055791 154.190509 120.576387 154.136553 124.757938 C 154.082598 128.912511 154.05562 133.30314 154.05562 137.923079 C 154.05562 142.543018 154.05562 146.913414 154.05562 151.041009 C 154.05562 155.141627 154.05562 158.608267 154.05562 161.440931 C 154.05562 164.246616 154.05562 165.811326 154.05562 166.141803 C 154.05562 167.38278 153.489087 168.003268 152.362766 168.003268 L 96.579529 168.003268 C 95.453208 168.003268 94.886675 167.436735 94.886675 166.310414 C 94.778764 162.70214 94.778764 159.181544 94.886675 155.748626 C 95.028308 152.308963 95.028308 148.511845 94.886675 144.357272 C 94.886675 143.453517 94.913653 141.672986 94.974353 139.035911 C 95.055286 136.365114 95.12273 133.357095 95.176686 129.998366 C 95.230641 126.619403 95.230641 123.260673 95.176686 119.935666 C 95.12273 116.603914 94.974353 113.784739 94.724809 111.471398 C 94.502242 109.1648 94.117809 107.721491 93.57151 107.141469 C 92.330533 106.264692 90.995135 105.630715 89.565314 105.246282 C 88.162471 104.828127 86.732651 104.571839 85.275852 104.457183 C 83.461599 104.349272 81.647345 104.295317 79.826347 104.295317 C 78.039072 104.295317 76.251796 104.295317 74.46452 104.295317 L 55.195664 104.295317 C 54.069343 104.295317 53.50281 103.728784 53.50281 102.602463 C 53.50281 102.602463 53.448855 101.341253 53.340944 98.805345 C 53.233033 96.276181 53.118377 93.207462 53.010466 89.605933 C 52.902555 85.977426 52.774411 82.510786 52.639522 79.206011 C 52.531611 75.881004 52.470911 73.419285 52.470911 71.820853 L 52.470911 63.403796 C 52.585567 62.277475 53.145355 61.717686 54.163765 61.717686 L 193.955709 61.717686 C 193.955709 61.717686 194.036642 61.744664 194.198509 61.79862 C 194.36712 61.852575 194.448053 61.933508 194.448053 62.048164 Z M 194.448053 62.048164 " stroke="#000000" stroke-width="12.675" stroke-opacity="1" stroke-miterlimit="4"/><g fill="#ffffff" fill-opacity="1"><g transform="translate(144.681565, 216.459045)"><g><path d="M 84.65625 -61.375 C 84.65625 -60.0625 84.640625 -58.25 84.609375 -55.9375 C 84.578125 -53.625 84.5625 -51.207031 84.5625 -48.6875 C 84.5625 -46.175781 84.5625 -43.925781 84.5625 -41.9375 C 84.5625 -39.945312 84.59375 -38.625 84.65625 -37.96875 C 84.65625 -37.382812 84.363281 -37.0625 83.78125 -37 C 82.863281 -36.863281 81.523438 -36.78125 79.765625 -36.75 C 78.003906 -36.71875 76.128906 -36.71875 74.140625 -36.75 C 72.148438 -36.78125 70.351562 -36.796875 68.75 -36.796875 C 67.15625 -36.796875 66.066406 -36.765625 65.484375 -36.703125 C 65.085938 -36.703125 64.691406 -36.648438 64.296875 -36.546875 C 63.910156 -36.453125 63.554688 -36.304688 63.234375 -36.109375 C 62.578125 -35.585938 62.117188 -34.9375 61.859375 -34.15625 C 61.722656 -33.832031 61.609375 -32.835938 61.515625 -31.171875 C 61.421875 -29.503906 61.351562 -27.460938 61.3125 -25.046875 C 61.28125 -22.640625 61.265625 -20.097656 61.265625 -17.421875 C 61.265625 -14.742188 61.265625 -12.210938 61.265625 -9.828125 C 61.265625 -7.453125 61.265625 -5.445312 61.265625 -3.8125 C 61.265625 -2.1875 61.265625 -1.273438 61.265625 -1.078125 C 61.265625 -0.359375 60.941406 0 60.296875 0 L 28 0 C 27.34375 0 27.015625 -0.328125 27.015625 -0.984375 C 26.953125 -3.066406 26.953125 -5.101562 27.015625 -7.09375 C 27.078125 -9.082031 27.078125 -11.285156 27.015625 -13.703125 C 27.015625 -14.222656 27.03125 -15.25 27.0625 -16.78125 C 27.09375 -18.3125 27.125 -20.054688 27.15625 -22.015625 C 27.1875 -23.972656 27.1875 -25.914062 27.15625 -27.84375 C 27.125 -29.769531 27.039062 -31.398438 26.90625 -32.734375 C 26.78125 -34.078125 26.554688 -34.910156 26.234375 -35.234375 C 25.515625 -35.753906 24.742188 -36.128906 23.921875 -36.359375 C 23.109375 -36.585938 22.28125 -36.734375 21.4375 -36.796875 C 20.394531 -36.867188 19.347656 -36.90625 18.296875 -36.90625 C 17.253906 -36.90625 16.210938 -36.90625 15.171875 -36.90625 L 4.015625 -36.90625 C 3.359375 -36.90625 3.03125 -37.226562 3.03125 -37.875 C 3.03125 -37.875 3 -38.609375 2.9375 -40.078125 C 2.875 -41.546875 2.804688 -43.320312 2.734375 -45.40625 C 2.671875 -47.5 2.609375 -49.507812 2.546875 -51.4375 C 2.484375 -53.363281 2.453125 -54.78125 2.453125 -55.6875 L 2.453125 -60.578125 C 2.515625 -61.234375 2.835938 -61.5625 3.421875 -61.5625 L 84.375 -61.5625 C 84.375 -61.5625 84.421875 -61.546875 84.515625 -61.515625 C 84.609375 -61.484375 84.65625 -61.4375 84.65625 -61.375 Z M 84.65625 -61.375 "/></g></g></g><path stroke-linecap="butt" transform="matrix(0.579181, 0, 0, 0.579181, 64.391388, 119.15663)" fill="none" stroke-linejoin="miter" d="M 181.531946 135.737882 C 182.988745 137.740979 184.445543 140.303865 185.902341 143.406306 C 187.35914 146.515492 188.708027 149.678633 189.949003 152.895729 C 191.183235 156.092592 192.228623 158.898278 193.085167 161.312786 C 193.934966 163.734039 194.474521 165.34596 194.690343 166.141803 C 194.804998 166.580192 194.690343 167.011836 194.359865 167.423246 C 194.029388 167.807679 193.631466 168.003268 193.1661 168.003268 L 134.867187 168.003268 C 134.206232 168.003268 133.754355 167.659302 133.504811 166.971369 C 133.174333 166.195759 132.472912 164.658027 131.400547 162.344685 C 130.328181 160.038088 129.060227 157.508924 127.603429 154.757194 C 126.14663 151.978486 124.730298 149.489789 123.354433 147.284358 C 122.005546 145.085671 120.892714 143.655851 120.009193 142.994896 C 119.32126 142.421619 118.36355 142.279985 117.122574 142.583485 C 115.888342 142.860007 115.267853 143.453517 115.267853 144.357272 C 114.937376 147.85089 114.71481 151.479397 114.606899 155.249538 C 114.498988 159.019678 114.552943 162.70214 114.768765 166.310414 C 114.883421 167.436735 114.370843 168.003268 113.244522 168.003268 L 54.615132 168.003268 C 53.596722 168.003268 53.09089 167.490691 53.09089 166.472281 C 53.09089 166.472281 53.09089 165.34596 53.09089 163.093318 C 53.09089 160.833931 53.09089 157.879868 53.09089 154.217639 C 53.09089 150.562154 53.117867 146.684103 53.171823 142.583485 C 53.225778 138.45589 53.252756 134.510394 53.252756 130.740254 C 53.252756 126.976858 53.225778 123.800228 53.171823 121.210365 C 53.117867 118.600267 53.09089 117.12998 53.09089 116.799503 L 53.09089 95.669182 C 53.306712 90.253399 53.475322 84.851105 53.583233 79.455556 C 53.691144 74.039773 53.637189 68.617245 53.421367 63.201463 C 53.421367 62.870985 53.5023 62.540508 53.664167 62.21003 C 53.832778 61.879553 54.075577 61.717686 54.406055 61.717686 L 163.254522 61.717686 C 168.339828 61.717686 172.312301 62.304453 175.178687 63.491473 C 178.038328 64.67175 179.812115 65.427127 180.500047 65.757604 C 183.305733 67.436969 185.517908 69.372622 187.143318 71.578053 C 188.78896 73.77674 189.962492 75.38866 190.650425 76.400326 C 192.795156 79.678122 194.029388 83.401051 194.359865 87.582602 C 194.690343 91.737175 194.858954 95.783837 194.858954 99.715844 C 194.858954 100.619599 194.744298 102.150586 194.528476 104.295317 C 194.30591 106.440048 193.934966 108.780367 193.415644 111.309531 C 192.916556 113.838695 192.215134 116.179015 191.31138 118.323746 C 189.632015 121.925275 187.608684 124.744449 185.241386 126.781269 C 182.880834 128.791112 181.693813 129.849988 181.693813 129.957899 C 181.585902 129.957899 181.477991 129.957899 181.363335 129.957899 C 180.237014 130.753743 179.785137 131.637264 180.000959 132.601718 C 180.223525 133.559429 180.729358 134.604816 181.531946 135.737882 Z M 136.060952 109.866222 C 137.740317 109.866222 139.251071 109.414344 140.599959 108.503845 C 141.975824 107.593346 142.663756 106.136548 142.663756 104.126706 C 142.663756 101.981975 141.89489 100.579132 140.350414 99.918177 C 138.83966 99.236989 137.571706 98.778367 136.560041 98.562545 C 136.006997 98.420912 134.577176 98.32649 132.263834 98.272535 C 129.957237 98.218579 127.380862 98.191601 124.548199 98.191601 C 121.742513 98.191601 119.159394 98.218579 116.792096 98.272535 C 114.424799 98.32649 112.900556 98.353468 112.212624 98.353468 C 111.443758 98.353468 110.877225 98.946978 110.51977 100.127255 C 110.189292 101.307531 110.054404 102.696885 110.108359 104.295317 C 110.162315 105.860026 110.357903 107.235891 110.688381 108.422912 C 111.045836 109.603189 111.551669 110.250655 112.212624 110.358566 C 112.570079 110.358566 113.723377 110.358566 115.679264 110.358566 C 117.662129 110.358566 119.995704 110.331588 122.693479 110.277632 C 125.418231 110.223677 128.014839 110.169721 130.490048 110.115766 C 132.965256 110.055066 134.826721 109.974133 136.060952 109.866222 Z M 136.060952 109.866222 " stroke="#000000" stroke-width="12.675" stroke-opacity="1" stroke-miterlimit="4"/><g fill="#ffffff" fill-opacity="1"><g transform="translate(92.391172, 216.459045)"><g><path d="M 77.125 -18.6875 C 77.96875 -17.519531 78.8125 -16.035156 79.65625 -14.234375 C 80.507812 -12.441406 81.296875 -10.613281 82.015625 -8.75 C 82.734375 -6.894531 83.335938 -5.265625 83.828125 -3.859375 C 84.316406 -2.460938 84.628906 -1.535156 84.765625 -1.078125 C 84.828125 -0.816406 84.757812 -0.570312 84.5625 -0.34375 C 84.363281 -0.113281 84.132812 0 83.875 0 L 50.109375 0 C 49.722656 0 49.460938 -0.195312 49.328125 -0.59375 C 49.128906 -1.039062 48.71875 -1.929688 48.09375 -3.265625 C 47.476562 -4.609375 46.742188 -6.078125 45.890625 -7.671875 C 45.046875 -9.273438 44.234375 -10.710938 43.453125 -11.984375 C 42.671875 -13.253906 42.019531 -14.085938 41.5 -14.484375 C 41.101562 -14.804688 40.546875 -14.882812 39.828125 -14.71875 C 39.117188 -14.5625 38.765625 -14.222656 38.765625 -13.703125 C 38.566406 -11.679688 38.429688 -9.578125 38.359375 -7.390625 C 38.296875 -5.203125 38.332031 -3.066406 38.46875 -0.984375 C 38.53125 -0.328125 38.234375 0 37.578125 0 L 3.625 0 C 3.03125 0 2.734375 -0.289062 2.734375 -0.875 C 2.734375 -0.875 2.734375 -1.523438 2.734375 -2.828125 C 2.734375 -4.140625 2.734375 -5.851562 2.734375 -7.96875 C 2.734375 -10.09375 2.75 -12.34375 2.78125 -14.71875 C 2.820312 -17.101562 2.84375 -19.390625 2.84375 -21.578125 C 2.84375 -23.765625 2.820312 -25.609375 2.78125 -27.109375 C 2.75 -28.609375 2.734375 -29.457031 2.734375 -29.65625 L 2.734375 -41.890625 C 2.867188 -45.023438 2.96875 -48.15625 3.03125 -51.28125 C 3.09375 -54.414062 3.0625 -57.550781 2.9375 -60.6875 C 2.9375 -60.875 2.984375 -61.066406 3.078125 -61.265625 C 3.179688 -61.460938 3.332031 -61.5625 3.53125 -61.5625 L 66.5625 -61.5625 C 69.488281 -61.5625 71.785156 -61.21875 73.453125 -60.53125 C 75.117188 -59.851562 76.144531 -59.414062 76.53125 -59.21875 C 78.164062 -58.238281 79.457031 -57.109375 80.40625 -55.828125 C 81.351562 -54.554688 82.019531 -53.628906 82.40625 -53.046875 C 83.644531 -51.148438 84.363281 -48.992188 84.5625 -46.578125 C 84.757812 -44.171875 84.859375 -41.828125 84.859375 -39.546875 C 84.859375 -39.023438 84.789062 -38.144531 84.65625 -36.90625 C 84.53125 -35.664062 84.316406 -34.3125 84.015625 -32.84375 C 83.722656 -31.375 83.316406 -30.019531 82.796875 -28.78125 C 81.816406 -26.6875 80.640625 -25.050781 79.265625 -23.875 C 77.898438 -22.707031 77.21875 -22.085938 77.21875 -22.015625 C 77.15625 -22.015625 77.09375 -22.015625 77.03125 -22.015625 C 76.375 -21.566406 76.109375 -21.0625 76.234375 -20.5 C 76.367188 -19.945312 76.664062 -19.34375 77.125 -18.6875 Z M 50.796875 -33.671875 C 51.773438 -33.671875 52.65625 -33.929688 53.4375 -34.453125 C 54.21875 -34.972656 54.609375 -35.820312 54.609375 -37 C 54.609375 -38.238281 54.164062 -39.050781 53.28125 -39.4375 C 52.40625 -39.832031 51.675781 -40.097656 51.09375 -40.234375 C 50.757812 -40.296875 49.925781 -40.34375 48.59375 -40.375 C 47.257812 -40.40625 45.773438 -40.421875 44.140625 -40.421875 C 42.503906 -40.421875 41 -40.40625 39.625 -40.375 C 38.257812 -40.34375 37.382812 -40.328125 37 -40.328125 C 36.539062 -40.328125 36.210938 -39.984375 36.015625 -39.296875 C 35.816406 -38.609375 35.734375 -37.804688 35.765625 -36.890625 C 35.804688 -35.984375 35.921875 -35.1875 36.109375 -34.5 C 36.304688 -33.8125 36.601562 -33.4375 37 -33.375 C 37.195312 -33.375 37.863281 -33.375 39 -33.375 C 40.144531 -33.375 41.5 -33.390625 43.0625 -33.421875 C 44.625 -33.453125 46.125 -33.484375 47.5625 -33.515625 C 49 -33.554688 50.078125 -33.609375 50.796875 -33.671875 Z M 50.796875 -33.671875 "/></g></g></g></svg>